<?xml version="1.0" encoding="UTF-8"?>
<svg xmlns="http://www.w3.org/2000/svg" xmlns:xlink="http://www.w3.org/1999/xlink" width="504pt" height="504pt" viewBox="0 0 504 504" version="1.1">
<g id="surface11">
<rect x="0" y="0" width="504" height="504" style="fill:rgb(100%,100%,100%);fill-opacity:1;stroke:none;"/>
<path style="fill:none;stroke-width:0.853583;stroke-linecap:butt;stroke-linejoin:round;stroke:rgb(0%,0%,0%);stroke-opacity:1;stroke-miterlimit:10;" d="M 247.089844 261.113281 L 246.542969 262.175781 L 249.035156 259.710938 L 243.523438 261.671875 L 251.664063 262.585938 L 242.835938 256.902344 L 249.320313 267.910156 L 248.40625 252.878906 L 241.433594 268.820313 L 256.734375 256.246094 L 235.0625 261.113281 L 258.875 267.058594 L 238.605469 249.550781 L 249.535156 276.40625 L 252.292969 245.253906 L 234.332031 273.746094 L 265.390625 255.222656 L 226.894531 257.945313 L 264.601563 273.714844 L 236.714844 240.949219 L 247.089844 284.933594 L 258.554688 238.828125 L 225.683594 276.515625 L 274.410156 256.828125 L 219.636719 252.28125 L 268.347656 282.167969 L 237.425781 231.660156 L 242.007813 292.875 L 266.882813 234.132813 L 216.011719 276.792969 L 283.167969 261.113281 L 213.871094 244.351563 L 269.710938 291.945313 L 240.878906 222.292969 L 234.453125 299.625 L 276.851563 231.636719 L 205.914063 274.363281 L 291.039063 268.007813 L 210.117188 234.511719 L 268.382813 302.5 L 247.089844 213.472656 L 224.703125 304.621094 L 287.953125 231.710938 L 196.011719 269.125 L 297.414063 277.304688 L 208.820313 223.214844 L 264.183594 313.21875 L 255.929688 205.824219 L 213.15625 307.363281 L 299.59375 234.617188 L 186.957031 261.113281 L 301.738281 288.6875 L 210.332031 211.007813 L 257.058594 323.460938 L 267.15625 199.945313 L 200.316406 307.433594 L 311.140625 240.503906 L 179.382813 250.492188 L 303.519531 301.714844 L 214.875 198.5 L 247.089844 332.574219 L 280.394531 196.378906 L 186.765625 304.515625 L 321.921875 249.375 L 173.886719 237.558594 L 302.363281 315.855469 L 222.5625 186.351563 L 234.484375 339.929688 L 295.15625 195.589844 L 173.152344 298.421875 L 331.273438 261.113281 L 171.007813 222.722656 L 297.984375 330.488281 L 233.355469 175.238281 L 219.585938 344.933594 L 310.867188 197.949219 L 160.160156 289.085938 L 338.550781 275.460938 L 171.199219 206.507813 L 290.222656 344.949219 L 247.089844 165.832031 L 202.863281 347.070313 L 326.871094 203.707031 L 148.5 276.578125 L 343.164063 292.027344 L 174.804688 189.527344 L 279.050781 358.527344 L 263.457031 158.769531 L 184.882813 345.90625 L 342.457031 212.988281 L 138.851563 261.113281 L 344.601563 310.316406 L 182.054688 172.464844 L 264.585938 370.511719 L 282.023438 154.636719 L 166.300781 341.121094 L 356.890625 225.78125 L 131.871094 243.039063 L 342.4375 329.71875 L 193.035156 156.054688 L 247.089844 380.214844 L 302.234375 153.929688 L 147.847656 332.519531 L 369.433594 241.921875 L 128.136719 222.835938 L 336.378906 349.542969 L 207.695313 141.042969 L 226.957031 386.984375 L 323.433594 157.050781 L 130.289063 320.050781 L 379.378906 261.113281 L 128.144531 201.09375 L 326.261719 369.03125 L 225.828125 128.183594 L 204.722656 390.242188 L 344.882813 164.261719 L 114.410156 303.804688 L 386.066406 282.910156 L 132.28125 178.503906 L 312.0625 387.394531 L 247.089844 118.191406 L 181.023438 389.519531 L 365.789063 175.703125 L 100.984375 284.03125 L 388.917969 306.75 L 140.789063 155.839844 L 293.914063 403.835938 L 270.980469 111.714844 L 156.605469 384.449219 L 385.320313 191.359375 L 90.746094 261.113281 L 387.460938 331.945313 L 153.777344 133.921875 L 272.109375 417.566406 L 296.886719 109.328125 L 132.285156 374.804688 L 402.640625 211.058594 L 84.355469 235.585938 L 381.355469 357.722656 L 171.195313 113.605469 L 247.089844 427.855469 L 324.074219 111.484375 L 108.929688 360.523438 L 416.949219 234.46875 L 82.386719 208.113281 L 370.394531 383.226563 L 192.828125 95.734375 L 219.433594 434.035156 L 351.707031 118.507813 L 87.425781 341.679688 L 427.484375 261.113281 L 85.285156 179.464844 L 354.535156 407.574219 L 218.304688 81.128906 L 189.855469 435.550781 L 378.898438 130.574219 L 68.660156 318.527344 L 433.578125 290.363281 L 93.363281 150.503906 L 333.898438 429.84375 L 247.089844 70.550781 L 159.183594 431.964844 L 404.707031 147.703125 L 53.472656 291.480469 L 434.667969 321.472656 L 106.773438 122.152344 L 308.78125 449.144531 L 278.507813 64.660156 L 128.332031 422.988281 L 428.179688 169.734375 L 42.640625 261.113281 L 430.324219 353.574219 L 125.503906 95.382813 L 279.636719 464.621094 L 311.753906 64.019531 L 98.269531 408.492188 L 448.394531 196.335938 L 36.84375 228.132813 L 420.273438 385.722656 L 149.359375 71.15625 L 247.089844 475.496094 L 345.910156 69.035156 L 70.011719 388.523438 L 464.460938 227.015625 L 36.632813 193.390625 L 404.410156 416.914063 L 177.964844 50.425781 L 211.90625 481.089844 L 379.984375 79.964844 L 44.566406 363.308594 L 475.589844 261.113281 L 42.421875 157.835938 L 382.8125 446.113281 L 210.777344 34.078125 L 174.992188 480.863281 L 412.914063 96.886719 L 22.910156 333.25 L 481.089844 297.816406 L 54.445313 122.5 L 355.738281 472.292969 L 247.089844 22.910156 "/>
</g>
</svg>
