<?xml version="1.0" encoding="UTF-8"?>
<svg xmlns="http://www.w3.org/2000/svg" xmlns:xlink="http://www.w3.org/1999/xlink" width="504pt" height="504pt" viewBox="0 0 504 504" version="1.1">
<g id="surface56">
<rect x="0" y="0" width="504" height="504" style="fill:rgb(100%,100%,100%);fill-opacity:1;stroke:none;"/>
<path style="fill:none;stroke-width:0.426791;stroke-linecap:butt;stroke-linejoin:round;stroke:rgb(0%,0%,0%);stroke-opacity:1;stroke-miterlimit:10;" d="M 264.726563 264.058594 L 264.925781 262.867188 L 265.515625 261.765625 L 266.460938 260.835938 L 267.71875 260.15625 L 269.226563 259.792969 L 270.90625 259.804688 L 272.664063 260.226563 L 274.410156 261.078125 L 276.039063 262.359375 L 277.453125 264.058594 L 278.554688 266.132813 L 279.253906 268.527344 L 279.46875 271.171875 L 279.140625 273.980469 L 278.226563 276.847656 L 276.695313 279.664063 L 274.550781 282.320313 L 271.804688 284.699219 L 268.511719 286.683594 L 264.726563 288.171875 L 260.546875 289.066406 L 256.074219 289.285156 L 251.4375 288.765625 L 246.773438 287.46875 L 242.226563 285.371094 L 237.957031 282.484375 L 234.109375 278.835938 L 230.835938 274.488281 L 228.273438 269.527344 L 226.546875 264.058594 L 225.757813 258.210938 L 225.992188 252.132813 L 227.304688 245.992188 L 229.71875 239.960938 L 233.230469 234.21875 L 237.796875 228.941406 L 243.347656 224.308594 L 249.78125 220.480469 L 256.960938 217.613281 L 264.726563 215.828125 L 272.890625 215.230469 L 281.246094 215.894531 L 289.574219 217.863281 L 297.644531 221.136719 L 305.226563 225.691406 L 312.089844 231.457031 L 318.027344 238.328125 L 322.828125 246.171875 L 326.324219 254.816406 L 328.363281 264.058594 L 328.835938 273.675781 L 327.671875 283.433594 L 324.828125 293.070313 L 320.328125 302.328125 L 314.226563 310.949219 L 306.621094 318.683594 L 297.664063 325.292969 L 287.539063 330.566406 L 276.472656 334.320313 L 264.726563 336.402344 L 252.582031 336.703125 L 240.34375 335.15625 L 228.324219 331.738281 L 216.847656 326.488281 L 206.230469 319.476563 L 196.769531 310.832031 L 188.75 300.734375 L 182.417969 289.394531 L 177.992188 277.070313 L 175.636719 264.058594 L 175.476563 250.664063 L 177.574219 237.230469 L 181.945313 224.097656 L 188.53125 211.613281 L 197.230469 200.113281 L 207.871094 189.921875 L 220.234375 181.335938 L 234.050781 174.613281 L 249 169.976563 L 264.726563 167.597656 L 280.855469 167.59375 L 296.976563 170.027344 L 312.683594 174.886719 L 327.566406 182.117188 L 341.222656 191.585938 L 353.277344 203.109375 L 363.386719 216.433594 L 371.246094 231.269531 L 376.605469 247.269531 L 379.273438 264.058594 L 379.121094 281.222656 L 376.085938 298.335938 L 370.191406 314.964844 L 361.515625 330.675781 L 350.222656 345.054688 L 336.542969 357.703125 L 320.773438 368.265625 L 303.269531 376.4375 L 284.4375 381.957031 L 264.726563 384.632813 L 244.617188 384.339844 L 224.609375 381.023438 L 205.214844 374.710938 L 186.925781 365.503906 L 170.230469 353.578125 L 155.582031 339.179688 L 143.386719 322.628906 L 134 304.296875 L 127.707031 284.617188 L 124.726563 264.058594 L 125.195313 243.121094 L 129.160156 222.328125 L 136.585938 202.203125 L 147.347656 183.261719 L 161.234375 166.011719 L 177.949219 150.902344 L 197.125 138.363281 L 218.320313 128.742188 L 241.035156 122.339844 L 264.726563 119.367188 L 288.816406 119.957031 L 312.710938 124.15625 L 335.796875 131.914063 L 357.492188 143.101563 L 377.222656 157.484375 L 394.464844 174.757813 L 408.746094 194.539063 L 419.664063 216.367188 L 426.886719 239.726563 L 430.183594 264.058594 L 429.402344 288.765625 L 424.503906 313.238281 L 415.550781 336.859375 L 402.703125 359.027344 L 386.222656 379.15625 L 366.46875 396.722656 L 343.886719 411.238281 L 319 422.304688 L 292.402344 429.59375 L 264.726563 432.859375 L 236.65625 431.972656 L 208.878906 426.894531 L 182.101563 417.6875 L 157.003906 404.523438 L 134.234375 387.683594 L 114.398438 367.53125 L 98.027344 344.523438 L 85.582031 319.203125 L 77.425781 292.160156 L 73.816406 264.058594 L 74.910156 235.574219 L 80.742188 207.421875 L 91.222656 180.304688 L 106.160156 154.914063 L 125.234375 131.90625 L 148.023438 111.886719 L 174.011719 95.386719 L 202.585938 82.875 L 233.070313 74.703125 L 264.726563 71.140625 L 296.78125 72.324219 L 328.441406 78.289063 L 358.910156 88.941406 L 387.414063 104.082031 L 413.21875 123.378906 L 435.652344 146.410156 L 454.105469 172.640625 L 468.082031 201.460938 L 477.171875 232.179688 L 481.089844 264.058594 L 479.683594 296.3125 L 472.921875 328.144531 L 460.910156 358.757813 L 443.886719 387.375 L 422.21875 413.261719 L 396.390625 435.738281 L 367 454.210938 L 334.734375 468.175781 L 300.367188 477.226563 L 264.726563 481.089844 L 228.691406 479.609375 L 193.148438 472.761719 L 158.988281 460.660156 L 127.078125 443.542969 L 98.234375 421.785156 L 73.210938 395.878906 L 52.667969 366.421875 L 37.164063 334.105469 L 27.144531 299.707031 L 22.910156 264.058594 L 24.628906 228.03125 L 32.324219 192.519531 L 45.863281 158.410156 L 64.972656 126.566406 L 89.234375 97.804688 L 118.101563 72.867188 L 150.898438 52.414063 L 186.855469 37.003906 L 225.105469 27.070313 L 264.726563 22.910156 "/>
</g>
</svg>
