<?xml version="1.0" encoding="UTF-8"?>
<svg xmlns="http://www.w3.org/2000/svg" xmlns:xlink="http://www.w3.org/1999/xlink" width="504pt" height="504pt" viewBox="0 0 504 504" version="1.1">
<g id="surface51">
<rect x="0" y="0" width="504" height="504" style="fill:rgb(100%,100%,100%);fill-opacity:1;stroke:none;"/>
<path style="fill:none;stroke-width:0.426791;stroke-linecap:butt;stroke-linejoin:round;stroke:rgb(0%,0%,0%);stroke-opacity:1;stroke-miterlimit:10;" d="M 258.027344 257.875 L 258.402344 256.757813 L 259.445313 255.972656 L 260.957031 255.800781 L 262.617188 256.421875 L 264.058594 257.875 L 264.910156 260.050781 L 264.855469 262.707031 L 263.699219 265.476563 L 261.382813 267.929688 L 258.027344 269.621094 L 253.929688 270.164063 L 249.523438 269.28125 L 245.347656 266.851563 L 241.972656 262.957031 L 239.941406 257.875 L 239.679688 252.066406 L 241.445313 246.136719 L 245.273438 240.765625 L 250.949219 236.644531 L 258.027344 234.378906 L 265.851563 234.410156 L 273.621094 236.964844 L 280.464844 241.992188 L 285.550781 249.160156 L 288.171875 257.875 L 287.84375 267.3125 L 284.367188 276.519531 L 277.871094 284.488281 L 268.832031 290.277344 L 258.027344 293.117188 L 246.476563 292.511719 L 235.351563 288.289063 L 225.839844 280.660156 L 219.039063 270.21875 L 215.828125 257.875 L 216.746094 244.804688 L 221.9375 232.324219 L 231.097656 221.757813 L 243.496094 214.296875 L 258.027344 210.882813 L 273.304688 212.0625 L 287.792969 217.953125 L 299.972656 228.179688 L 308.484375 241.898438 L 312.285156 257.875 L 310.777344 274.574219 L 303.875 290.328125 L 292.046875 303.496094 L 276.285156 312.625 L 258.027344 316.617188 L 239.027344 314.859375 L 221.175781 307.296875 L 206.328125 294.472656 L 196.105469 277.476563 L 191.714844 257.875 L 193.8125 237.542969 L 202.425781 218.511719 L 216.921875 202.746094 L 236.046875 191.953125 L 258.027344 187.382813 L 280.757813 189.71875 L 301.96875 198.945313 L 319.484375 214.371094 L 331.417969 234.640625 L 336.402344 257.875 L 333.710938 281.835938 L 323.386719 304.140625 L 306.222656 322.503906 L 283.738281 334.96875 L 258.027344 340.113281 L 231.574219 337.203125 L 207 326.308594 L 186.820313 308.285156 L 173.171875 284.738281 L 167.597656 257.875 L 170.878906 230.28125 L 182.917969 204.703125 L 202.75 183.738281 L 228.59375 169.605469 L 258.027344 163.886719 L 288.207031 167.371094 L 316.144531 179.9375 L 338.992188 200.558594 L 354.355469 227.378906 L 360.515625 257.875 L 356.648438 289.09375 L 342.894531 317.953125 L 320.394531 341.515625 L 291.191406 357.316406 L 258.027344 363.609375 L 224.121094 359.550781 L 192.828125 345.316406 L 167.308594 322.09375 L 150.234375 292 L 143.484375 257.875 L 147.941406 223.023438 L 163.410156 190.890625 L 188.574219 164.730469 L 221.140625 147.257813 L 258.027344 140.390625 L 295.660156 145.023438 L 330.316406 160.929688 L 358.5 186.746094 L 377.289063 220.117188 L 384.632813 257.875 L 379.582031 296.355469 L 362.402344 331.761719 L 334.570313 360.523438 L 298.640625 379.664063 L 258.027344 387.105469 L 216.671875 381.898438 L 178.652344 364.324219 L 147.800781 335.90625 L 127.300781 299.261719 L 119.367188 257.875 L 125.007813 215.761719 L 143.898438 177.082031 L 174.398438 145.71875 L 213.691406 124.914063 L 258.027344 116.894531 L 303.113281 122.679688 L 344.492188 141.917969 L 378.011719 172.9375 L 400.222656 212.855469 L 408.746094 257.875 L 402.515625 303.617188 L 381.914063 345.574219 L 348.746094 379.53125 L 306.09375 402.007813 L 258.027344 410.601563 L 209.21875 404.242188 L 164.476563 383.335938 L 128.292969 349.714844 L 104.367188 306.523438 L 95.253906 257.875 L 102.074219 208.5 L 124.390625 163.269531 L 160.226563 126.710938 L 206.238281 102.566406 L 258.027344 93.398438 L 310.566406 100.332031 L 358.667969 122.910156 L 397.519531 159.125 L 423.15625 205.597656 L 432.859375 257.875 L 425.449219 310.878906 L 401.421875 359.382813 L 362.917969 398.542969 L 313.546875 424.355469 L 258.027344 434.097656 L 201.765625 426.589844 L 150.304688 402.34375 L 108.78125 363.527344 L 81.433594 313.78125 L 71.140625 257.875 L 79.140625 201.238281 L 104.878906 149.457031 L 146.050781 107.703125 L 198.785156 80.21875 L 258.027344 69.902344 L 318.015625 77.984375 L 372.839844 103.902344 L 417.03125 145.316406 L 446.09375 198.335938 L 456.976563 257.875 L 448.386719 318.140625 L 420.929688 373.195313 L 377.09375 417.550781 L 320.996094 446.703125 L 258.027344 457.59375 L 194.316406 448.9375 L 136.128906 421.351563 L 89.273438 377.339844 L 58.496094 321.042969 L 47.023438 257.875 L 56.203125 193.980469 L 85.371094 135.648438 L 131.878906 88.695313 L 191.335938 57.871094 L 258.027344 46.40625 L 325.46875 55.636719 L 387.015625 84.890625 L 436.539063 131.503906 L 469.027344 191.074219 L 481.089844 257.875 L 471.320313 325.398438 L 440.441406 387.007813 L 391.265625 436.558594 L 328.449219 469.046875 L 258.027344 481.089844 L 186.863281 471.285156 L 121.953125 440.359375 L 69.765625 391.148438 L 35.5625 328.304688 L 22.910156 257.875 L 33.269531 186.71875 L 65.863281 121.835938 L 117.703125 69.683594 L 183.882813 35.527344 L 258.027344 22.910156 "/>
</g>
</svg>
