<?xml version="1.0" encoding="UTF-8"?>
<svg xmlns="http://www.w3.org/2000/svg" xmlns:xlink="http://www.w3.org/1999/xlink" width="504pt" height="504pt" viewBox="0 0 504 504" version="1.1">
<g id="surface41">
<rect x="0" y="0" width="504" height="504" style="fill:rgb(100%,100%,100%);fill-opacity:1;stroke:none;"/>
<path style="fill:none;stroke-width:0.426791;stroke-linecap:butt;stroke-linejoin:round;stroke:rgb(0%,0%,0%);stroke-opacity:1;stroke-miterlimit:10;" d="M 253.15625 253.152344 L 254.3125 253.152344 L 253.15625 255.453125 L 249.6875 253.152344 L 253.15625 248.546875 L 258.941406 253.152344 L 253.15625 260.058594 L 245.058594 253.152344 L 253.15625 243.941406 L 263.570313 253.152344 L 253.15625 264.664063 L 240.429688 253.152344 L 253.15625 239.335938 L 268.199219 253.152344 L 253.15625 269.269531 L 235.800781 253.152344 L 253.15625 234.730469 L 272.828125 253.152344 L 253.15625 273.871094 L 231.171875 253.152344 L 253.15625 230.128906 L 277.453125 253.152344 L 253.15625 278.476563 L 226.546875 253.152344 L 253.15625 225.523438 L 282.082031 253.152344 L 253.15625 283.082031 L 221.917969 253.152344 L 253.15625 220.917969 L 286.710938 253.152344 L 253.15625 287.6875 L 217.289063 253.152344 L 253.15625 216.3125 L 291.339844 253.152344 L 253.15625 292.292969 L 212.660156 253.152344 L 253.15625 211.707031 L 295.96875 253.152344 L 253.15625 296.898438 L 208.03125 253.152344 L 253.15625 207.101563 L 300.59375 253.152344 L 253.15625 301.503906 L 203.40625 253.152344 L 253.15625 202.496094 L 305.222656 253.152344 L 253.15625 306.105469 L 198.777344 253.152344 L 253.15625 197.894531 L 309.851563 253.152344 L 253.15625 310.710938 L 194.148438 253.152344 L 253.15625 193.289063 L 314.480469 253.152344 L 253.15625 315.316406 L 189.519531 253.152344 L 253.15625 188.683594 L 319.109375 253.152344 L 253.15625 319.921875 L 184.890625 253.152344 L 253.15625 184.078125 L 323.734375 253.152344 L 253.15625 324.527344 L 180.265625 253.152344 L 253.15625 179.472656 L 328.363281 253.152344 L 253.15625 329.132813 L 175.636719 253.152344 L 253.15625 174.867188 L 332.992188 253.152344 L 253.15625 333.734375 L 171.007813 253.152344 L 253.15625 170.265625 L 337.621094 253.152344 L 253.15625 338.339844 L 166.378906 253.152344 L 253.15625 165.660156 L 342.246094 253.152344 L 253.15625 342.945313 L 161.753906 253.152344 L 253.15625 161.054688 L 346.875 253.152344 L 253.15625 347.550781 L 157.125 253.152344 L 253.15625 156.449219 L 351.503906 253.152344 L 253.15625 352.15625 L 152.496094 253.152344 L 253.15625 151.84375 L 356.132813 253.152344 L 253.15625 356.761719 L 147.867188 253.152344 L 253.15625 147.238281 L 360.761719 253.152344 L 253.15625 361.363281 L 143.238281 253.152344 L 253.15625 142.636719 L 365.386719 253.152344 L 253.15625 365.96875 L 138.613281 253.152344 L 253.15625 138.03125 L 370.015625 253.152344 L 253.15625 370.574219 L 133.984375 253.152344 L 253.15625 133.425781 L 374.644531 253.152344 L 253.15625 375.179688 L 129.355469 253.152344 L 253.15625 128.820313 L 379.273438 253.152344 L 253.15625 379.785156 L 124.726563 253.152344 L 253.15625 124.214844 L 383.902344 253.152344 L 253.15625 384.390625 L 120.097656 253.152344 L 253.15625 119.609375 L 388.527344 253.152344 L 253.15625 388.992188 L 115.472656 253.152344 L 253.15625 115.007813 L 393.15625 253.152344 L 253.15625 393.597656 L 110.84375 253.152344 L 253.15625 110.402344 L 397.785156 253.152344 L 253.15625 398.203125 L 106.214844 253.152344 L 253.15625 105.796875 L 402.414063 253.152344 L 253.15625 402.808594 L 101.585938 253.152344 L 253.15625 101.191406 L 407.042969 253.152344 L 253.15625 407.414063 L 96.957031 253.152344 L 253.15625 96.585938 L 411.667969 253.152344 L 253.15625 412.019531 L 92.332031 253.152344 L 253.15625 91.980469 L 416.296875 253.152344 L 253.15625 416.625 L 87.703125 253.152344 L 253.15625 87.375 L 420.925781 253.152344 L 253.15625 421.226563 L 83.074219 253.152344 L 253.15625 82.773438 L 425.554688 253.152344 L 253.15625 425.832031 L 78.445313 253.152344 L 253.15625 78.167969 L 430.183594 253.152344 L 253.15625 430.4375 L 73.816406 253.152344 L 253.15625 73.5625 L 434.808594 253.152344 L 253.15625 435.042969 L 69.191406 253.152344 L 253.15625 68.957031 L 439.4375 253.152344 L 253.15625 439.648438 L 64.5625 253.152344 L 253.15625 64.351563 L 444.066406 253.152344 L 253.15625 444.253906 L 59.933594 253.152344 L 253.15625 59.746094 L 448.695313 253.152344 L 253.15625 448.855469 L 55.304688 253.152344 L 253.15625 55.144531 L 453.324219 253.152344 L 253.15625 453.460938 L 50.675781 253.152344 L 253.15625 50.539063 L 457.949219 253.152344 L 253.15625 458.066406 L 46.050781 253.152344 L 253.15625 45.933594 L 462.578125 253.152344 L 253.15625 462.671875 L 41.421875 253.152344 L 253.15625 41.328125 L 467.207031 253.152344 L 253.15625 467.277344 L 36.792969 253.152344 L 253.15625 36.722656 L 471.835938 253.152344 L 253.15625 471.882813 L 32.164063 253.152344 L 253.15625 32.117188 L 476.460938 253.152344 L 253.15625 476.484375 L 27.539063 253.152344 L 253.15625 27.515625 L 481.089844 253.152344 L 253.15625 481.089844 L 22.910156 253.152344 L 253.15625 22.910156 "/>
</g>
</svg>
