<?xml version="1.0" encoding="UTF-8"?>
<svg xmlns="http://www.w3.org/2000/svg" xmlns:xlink="http://www.w3.org/1999/xlink" width="504pt" height="504pt" viewBox="0 0 504 504" version="1.1">
<g id="surface66">
<rect x="0" y="0" width="504" height="504" style="fill:rgb(100%,100%,100%);fill-opacity:1;stroke:none;"/>
<path style="fill:none;stroke-width:0.426791;stroke-linecap:butt;stroke-linejoin:round;stroke:rgb(0%,0%,0%);stroke-opacity:1;stroke-miterlimit:10;" d="M 254.652344 250.4375 L 255.113281 250.339844 L 255.039063 251.285156 L 253.511719 251.261719 L 253.238281 249.207031 L 255.808594 248.410156 L 257.351563 251.261719 L 254.359375 253.675781 L 250.910156 250.890625 L 253.261719 246.484375 L 258.679688 248.023438 L 258.214844 254.152344 L 251.449219 255.035156 L 248.984375 248.140625 L 255.824219 244.035156 L 261.71875 250.203125 L 256.480469 257.648438 L 247.457031 253.917969 L 249.394531 243.871094 L 260.359375 243.632813 L 263.019531 254.722656 L 252.035156 259.847656 L 244.296875 249.863281 L 252.96875 239.878906 L 265.210938 246.429688 L 261.101563 260.160156 L 246.03125 259.023438 L 243.925781 243.683594 L 259.261719 238.246094 L 268.179688 252.386719 L 255.589844 264.347656 L 240.597656 254.390625 L 247.554688 237.316406 L 266.535156 240.539063 L 267.335938 260.09375 L 247.535156 265.109375 L 238.144531 246.550781 L 255.046875 233.246094 L 272.25 247.121094 L 261.820313 267.125 L 239.21875 261.117188 L 240.46875 237.492188 L 264.75 233.648438 L 273.871094 256.789063 L 252.335938 270.753906 L 233.542969 252.519531 L 248.007813 230.089844 L 273.847656 239.527344 L 269.820313 266.988281 L 241.144531 268.910156 L 233.058594 241.117188 L 259.457031 227.214844 L 279.164063 250.183594 L 260.15625 274.460938 L 231.550781 260.984375 L 239.054688 230.019531 L 271.933594 230.765625 L 278.207031 263.183594 L 246.824219 276.261719 L 226.921875 248.28125 L 250.902344 222.800781 L 281.71875 240.859375 L 270.085938 274.902344 L 233.285156 270.773438 L 229.601563 233.859375 L 266.007813 222.382813 L 285.328125 255.5625 L 256.03125 281.539063 L 223.632813 258.417969 L 240.003906 221.808594 L 280.339844 230.015625 L 280.671875 271.195313 L 239.316406 280.285156 L 221.367188 241.808594 L 256.238281 216.085938 L 289.523438 244.671875 L 267.871094 283.261719 L 224.476563 270.328125 L 228.242188 225.214844 L 274.371094 219.292969 L 290.128906 263.054688 L 249.523438 287.734375 L 216.109375 253.367188 L 243.511719 213.464844 L 289.398438 231.710938 L 280.832031 280.339844 L 230.207031 282.320313 L 217.464844 233.378906 L 263.863281 210.566406 L 296.609375 250.941406 L 263.058594 291.429688 L 215.324219 267.335938 L 229.355469 215.710938 L 284.097656 218.417969 L 293.003906 272.320313 L 240.855469 292.4375 L 209.625 245.917969 L 249.621094 205.636719 L 298.480469 236.03125 L 278.390625 290.046875 L 220.003906 281.949219 L 215.730469 223.398438 L 273.480469 206.824219 L 302.332031 259.507813 L 255.683594 298.753906 L 206.484375 261.6875 L 233.171875 205.960938 L 294.625 220.109375 L 293.492188 282.890625 L 230.398438 295.09375 L 204.808594 236.316406 L 258.21875 198.976563 L 306.910156 242.996094 L 273.175781 299.671875 L 209.308594 278.878906 L 216.582031 212.386719 L 284.65625 205.371094 L 306.097656 270.050781 L 245.929688 304.59375 L 198.632813 253.433594 L 239.785156 196.632813 L 305.316406 224.59375 L 291.230469 294.1875 L 218.644531 295.238281 L 202.222656 224.945313 L 269.039063 194.109375 L 314.019531 252.484375 L 265.175781 308.53125 L 198.800781 272.960938 L 220.3125 200.960938 L 296.835938 206.613281 L 307.382813 282.125 L 234.144531 308.347656 L 192.433594 242.78125 L 249.132813 188.40625 L 315.46875 231.949219 L 285.996094 305.566406 L 206.199219 292.53125 L 202.339844 212.3125 L 281.671875 191.59375 L 319.15625 264.210938 L 254.539063 315.957031 L 189.175781 264.1875 L 227.0625 189.804688 L 309.378906 210.839844 L 305.777344 295.164063 L 220.796875 309.507813 L 188.496094 230.082031 L 260.988281 181.945313 L 324.386719 242.097656 L 277.726563 316.324219 L 193.742188 286.753906 L 205.507813 199.03125 L 295.585938 191.894531 L 321.753906 277.761719 L 241.558594 321.296875 L 181.144531 252.722656 L 236.828125 179.628906 L 321.566406 218.183594 L 300.996094 308.511719 L 206.484375 307.652344 L 187.359375 215.824219 L 274.976563 177.871094 L 331.371094 254.804688 L 266.507813 325.742188 L 182.003906 277.851563 L 211.941406 185.796875 L 310.125 195.371094 L 321.324219 292.578125 L 226.691406 323.976563 L 175.367188 238.875 L 249.433594 171.140625 L 332.664063 228.625 L 292.898438 321.441406 L 191.894531 302.507813 L 189.445313 200.617188 L 290.574219 176.714844 L 335.78125 269.675781 L 252.601563 333.125 L 171.738281 265.917969 L 221.695313 173.359375 L 324.570313 202.21875 L 317.515625 308 L 210.519531 323.507813 L 172.457031 223.109375 L 264.542969 165.023438 L 341.921875 241.980469 L 281.515625 333.199219 L 177.792969 293.945313 L 195.035156 185.164063 L 307.148438 178.898438 L 337.070313 286.183594 L 236.414063 337.828125 L 163.667969 251.226563 L 234.652344 162.46875 L 338.132813 212.488281 L 310.113281 323.285156 L 193.734375 319.539063 L 172.898438 206.023438 L 281.664063 161.878906 L 348.636719 257.902344 L 267.050781 343.035156 L 164.964844 281.996094 L 204.257813 170.242188 L 323.949219 184.703125 L 334.800781 303.667969 L 218.511719 339.289063 L 158.464844 234.199219 L 250.53125 153.867188 L 350.03125 226.0625 L 299.078125 337.644531 L 177.113281 311.859375 L 177.070313 188.328125 L 300.171875 162.210938 L 352.179688 275.890625 L 249.871094 350.234375 L 154.195313 266.871094 L 217.074219 156.648438 L 340.179688 194.261719 L 328.675781 321.378906 L 199.585938 337.070313 L 156.710938 215.410156 L 268.882813 148.234375 L 359.488281 242.644531 L 284.539063 350.273438 L 161.488281 300.433594 L 185.183594 170.808594 L 319.324219 166.394531 L 352.027344 295.300781 L 230.503906 354.152344 L 146.230469 248.945313 L 233.261719 145.183594 L 354.988281 207.527344 L 318.570313 338.492188 L 180.417969 330.875 L 158.863281 195.566406 L 289.101563 146.160156 L 365.789063 261.777344 L 266.804688 360.382813 L 147.703125 285.390625 L 197.273438 154.316406 L 338.289063 174.636719 L 347.792969 315.378906 L 209.617188 354.265625 L 141.742188 228.761719 L 252.421875 136.609375 L 367.546875 224.269531 L 304.527344 354.15625 L 161.878906 320.570313 L 165.238281 175.464844 L 310.457031 148.109375 L 368.324219 282.84375 L 246.351563 367.253906 L 136.570313 267.046875 L 213.207031 139.699219 L 356.183594 186.988281 L 339.25 335.28125 L 188.007813 350.171875 L 141.285156 206.996094 L 274 131.601563 L 377.058594 244.09375 L 286.78125 367.511719 L 144.855469 306.207031 L 175.964844 155.988281 L 332.101563 154.402344 L 366.601563 305.105469 L 223.828125 370.253906 L 128.859375 245.886719 L 232.65625 127.800781 L 372.109375 203.300781 L 326.347656 354.109375 L 166.554688 341.640625 L 145.277344 184.457031 L 297.273438 130.734375 L 382.804688 266.421875 L 265.757813 377.757813 L 130.246094 288.023438 L 191.003906 138.039063 L 353.121094 165.183594 L 360.28125 327.695313 L 200.011719 368.878906 L 125.226563 222.566406 L 255.109375 119.394531 L 385.191406 223.25 L 309.230469 370.945313 L 146.203125 328.625 L 153.960938 162.046875 L 321.40625 134.433594 L 384.191406 290.535156 L 242.046875 384.15625 L 118.898438 266.4375 L 210.109375 122.539063 L 372.5625 180.402344 L 349.210938 349.6875 L 175.800781 362.792969 L 126.203125 197.875 L 279.890625 115.15625 L 394.609375 246.324219 L 288.246094 384.898438 L 127.914063 311.261719 L 167.402344 140.714844 L 345.457031 142.953125 L 380.761719 315.578125 L 216.402344 386.097656 L 111.585938 242.050781 L 232.84375 110.347656 L 389.46875 199.824219 L 333.433594 370.113281 L 152.164063 351.824219 L 132.15625 172.71875 L 306.171875 115.632813 L 399.65625 271.835938 L 263.917969 395.132813 L 112.621094 289.890625 L 185.460938 121.445313 L 368.425781 156.359375 L 372.238281 340.597656 L 189.71875 383.113281 L 108.953125 215.625 L 258.585938 102.25 L 402.925781 223.011719 L 313.1875 387.992188 L 130.121094 336.007813 L 143.265625 148.089844 L 333.011719 121.199219 L 399.75 298.949219 L 236.960938 400.917969 L 101.203125 265.042969 L 207.78125 105.1875 L 389.289063 174.527344 L 358.546875 364.578125 L 162.980469 374.910156 L 111.496094 188.058594 L 286.546875 98.921875 L 412.109375 249.339844 L 288.921875 402.398438 L 110.691406 315.578125 L 159.511719 125.019531 L 359.375 132.054688 L 394.488281 326.710938 L 208.234375 401.660156 L 94.429688 237.4375 L 233.828125 92.84375 L 407.039063 197.105469 L 339.8125 386.476563 L 137.261719 361.402344 L 119.53125 160.363281 L 315.785156 100.871094 L 416.3125 278.007813 L 261.28125 412.480469 L 94.855469 290.984375 L 180.652344 104.550781 L 384.179688 148.1875 L 383.652344 354.074219 L 178.742188 396.933594 L 92.9375 207.941406 L 262.855469 85.207031 L 420.734375 223.554688 L 316.378906 405.269531 L 113.648438 342.703125 L 133.171875 133.613281 L 345.261719 108.433594 L 414.984375 308.082031 L 231.09375 417.511719 L 83.507813 262.867188 L 206.238281 87.675781 L 406.335938 169.367188 L 367.238281 379.933594 L 149.570313 386.507813 L 97.179688 177.5625 L 293.960938 82.925781 L 429.539063 253.136719 L 288.804688 419.992188 L 93.210938 319.152344 L 152.300781 108.921875 L 373.839844 121.734375 L 407.757813 338.488281 L 199.328125 416.921875 L 77.425781 232.050781 L 235.605469 75.324219 L 424.792969 195.152344 L 345.472656 403.183594 L 121.871094 370.359375 L 107.421875 147.40625 L 326.105469 86.484375 L 432.75 284.941406 L 257.851563 429.777344 L 76.976563 291.300781 L 176.589844 87.378906 L 400.363281 140.675781 L 394.496094 368.097656 L 167.097656 410.324219 L 77.210938 199.523438 L 267.910156 68.28125 L 438.582031 224.882813 L 318.800781 422.753906 L 96.808594 348.703125 L 123.691406 118.636719 L 358.132813 96.15625 L 429.859375 317.914063 L 224.453125 433.914063 L 65.84375 259.902344 L 205.476563 70.03125 L 423.6875 164.9375 L 375.269531 395.726563 L 135.582031 397.558594 L 83.285156 166.394531 L 302.132813 67.191406 L 446.859375 257.714844 L 287.894531 437.648438 L 75.503906 321.976563 L 145.792969 92.441406 L 388.824219 112.003906 L 420.550781 350.898438 L 189.699219 431.851563 L 60.59375 225.898438 L 238.1875 57.808594 L 442.710938 193.964844 L 350.402344 420.207031 L 106.015625 378.679688 L 95.84375 133.863281 L 337.113281 72.488281 L 448.945313 292.621094 L 253.625 446.996094 L 59.003906 290.835938 L 173.289063 69.960938 L 416.957031 133.839844 L 404.75 382.660156 L 154.800781 423.265625 L 61.796875 190.378906 L 273.753906 51.507813 L 456.449219 227 L 320.445313 440.417969 L 79.625 353.992188 L 114.84375 103.183594 L 371.609375 84.394531 L 444.355469 328.441406 L 217.042969 450.09375 L 48.238281 256.152344 L 205.507813 52.273438 L 441.3125 161.246094 L 382.625 411.941406 L 121.035156 408.046875 L 69.832031 154.566406 L 311.042969 51.742188 L 464.054688 263.066406 L 286.183594 455.34375 L 57.585938 324.035156 L 139.996094 75.601563 L 404.316406 102.886719 L 432.84375 363.917969 L 179.355469 446.429688 L 43.960938 218.980469 L 241.5625 40.328125 L 460.761719 193.558594 L 354.589844 437.523438 L 89.714844 386.34375 L 84.824219 119.757813 L 348.804688 58.90625 L 464.867188 301.039063 L 248.605469 464.109375 L 40.972656 289.582031 L 170.75 52.316406 L 433.929688 127.699219 L 414.402344 397.734375 L 141.867188 435.726563 L 46.722656 180.523438 L 280.371094 34.914063 L 474.304688 229.902344 L 321.304688 458.238281 L 62.125 358.554688 L 106.648438 87.273438 L 385.679688 73.160156 L 458.449219 339.652344 L 208.878906 466.027344 L 30.71875 251.617188 L 206.332031 34.433594 L 459.183594 158.304688 L 389.289063 428.554688 L 105.949219 417.949219 L 56.84375 142.101563 L 320.691406 36.609375 L 481.089844 269.195313 L 283.675781 473.050781 L 39.492188 325.324219 L 134.921875 58.429688 L 420.289063 94.398438 L 444.613281 377.539063 L 168.308594 460.628906 L 27.558594 211.308594 L 245.738281 22.910156 L 478.921875 193.933594 L 358.023438 455.105469 L 72.988281 393.335938 L 74.378906 105.101563 L 361.15625 45.769531 L 480.492188 310.195313 L 242.796875 481.089844 L 22.910156 287.542969 L 168.988281 34.476563 L 451.261719 122.261719 "/>
</g>
</svg>
