<?xml version="1.0" encoding="UTF-8"?>
<svg xmlns="http://www.w3.org/2000/svg" xmlns:xlink="http://www.w3.org/1999/xlink" width="504pt" height="504pt" viewBox="0 0 504 504" version="1.1">
<g id="surface11">
<rect x="0" y="0" width="504" height="504" style="fill:rgb(100%,100%,100%);fill-opacity:1;stroke:none;"/>
<path style="fill:none;stroke-width:0.853583;stroke-linecap:butt;stroke-linejoin:round;stroke:rgb(0%,0%,0%);stroke-opacity:1;stroke-miterlimit:10;" d="M 245.835938 244.054688 L 244.765625 244.578125 L 247.675781 245.601563 L 246.695313 240.496094 L 241.179688 245.023438 L 249.394531 248.949219 L 249.167969 237.574219 L 237.53125 243.679688 L 249.523438 253.0625 L 252.964844 235.859375 L 234.445313 240.59375 L 247.859375 257.335938 L 257.617188 235.800781 L 232.515625 236.019531 L 244.378906 261.097656 L 262.546875 237.691406 L 232.242188 230.394531 L 239.273438 263.699219 L 267.085938 241.609375 L 233.964844 224.308594 L 232.929688 264.574219 L 270.566406 247.429688 L 237.847656 218.460938 L 225.910156 263.277344 L 272.363281 254.796875 L 243.835938 213.578125 L 218.882813 259.5625 L 271.972656 263.179688 L 251.652344 210.367188 L 212.609375 253.394531 L 269.046875 271.871094 L 260.816406 209.453125 L 207.839844 244.976563 L 263.449219 280.078125 L 270.667969 211.292969 L 205.265625 234.734375 L 255.285156 286.957031 L 280.410156 216.144531 L 205.453125 223.320313 L 244.890625 291.699219 L 289.179688 224.03125 L 208.785156 211.546875 L 232.835938 293.601563 L 296.097656 234.707031 L 215.410156 200.339844 L 219.890625 292.128906 L 300.363281 247.667969 L 225.226563 190.683594 L 206.96875 286.964844 L 301.308594 262.183594 L 237.847656 183.515625 L 195.082031 278.074219 L 298.46875 277.308594 L 252.640625 179.671875 L 185.246094 265.699219 L 291.628906 291.984375 L 268.742188 179.8125 L 178.414063 250.386719 L 280.875 305.078125 L 285.101563 184.339844 L 175.394531 232.9375 L 266.578125 315.472656 L 300.574219 193.375 L 176.78125 214.398438 L 249.414063 322.171875 L 313.972656 206.703125 L 182.894531 195.976563 L 230.324219 324.355469 L 324.167969 223.792969 L 193.738281 178.96875 L 210.46875 321.464844 L 330.171875 243.785156 L 208.972656 164.667969 L 191.136719 313.265625 L 331.210938 265.558594 L 227.929688 154.28125 L 173.699219 299.882813 L 326.820313 287.78125 L 249.617188 148.824219 L 159.472656 281.796875 L 316.863281 308.992188 L 272.800781 149.046875 L 149.660156 259.867188 L 301.585938 327.703125 L 296.042969 155.355469 L 145.238281 235.261719 L 281.609375 342.488281 L 317.8125 167.773438 L 146.882813 209.417969 L 257.917969 352.09375 L 336.578125 185.914063 L 154.90625 183.9375 L 231.8125 355.542969 L 350.90625 208.972656 L 169.214844 160.511719 L 204.832031 352.203125 L 359.582031 235.78125 L 189.277344 140.792969 L 178.664063 341.851563 L 361.679688 264.835938 L 214.167969 126.285156 L 155.046875 324.726563 L 356.664063 294.40625 L 242.574219 118.242188 L 135.65625 301.515625 L 344.433594 322.628906 L 272.890625 117.558594 L 121.972656 273.347656 L 325.34375 347.621094 L 303.292969 124.699219 L 115.199219 241.734375 L 300.230469 367.609375 L 331.847656 139.648438 L 116.144531 208.488281 L 270.347656 381.054688 L 356.648438 161.890625 L 125.167969 175.636719 L 237.335938 386.753906 L 375.929688 190.398438 L 142.125 145.261719 L 203.109375 383.941406 L 388.191406 223.707031 L 166.351563 119.40625 L 169.761719 372.367188 L 392.308594 259.960938 L 196.691406 99.925781 L 139.429688 352.320313 L 387.625 297.03125 L 231.546875 88.339844 L 114.152344 324.644531 L 374.007813 332.648438 L 268.953125 85.757813 L 95.75 290.707031 L 351.886719 364.511719 L 306.691406 92.757813 L 85.6875 252.332031 L 322.25 390.46875 L 342.4375 109.339844 L 84.964844 211.707031 L 286.601563 408.644531 L 373.875 134.898438 L 94.046875 171.25 L 246.890625 417.566406 L 398.871094 168.246094 L 112.785156 133.484375 L 205.402344 416.28125 L 415.605469 207.644531 L 140.4375 100.851563 L 164.628906 404.445313 L 422.691406 250.914063 L 175.664063 75.582031 L 127.109375 382.351563 L 419.304688 295.546875 L 216.597656 59.535156 L 95.292969 350.945313 L 405.230469 338.84375 L 260.945313 54.070313 L 71.367188 311.796875 L 380.910156 378.089844 L 306.117188 59.929688 L 57.105469 267.007813 L 347.449219 410.714844 L 349.363281 77.195313 L 53.75 219.109375 L 306.550781 434.46875 L 387.964844 105.234375 L 61.921875 170.933594 L 260.449219 447.5625 L 419.378906 142.722656 L 81.539063 125.410156 L 211.773438 448.804688 L 441.425781 187.714844 L 111.8125 85.429688 L 163.414063 437.695313 L 452.421875 237.722656 L 151.269531 53.628906 L 118.332031 414.480469 L 451.304688 289.871094 L 197.828125 32.234375 L 79.394531 380.152344 L 437.730469 341.042969 L 248.878906 22.910156 L 49.191406 336.433594 L 412.101563 388.09375 L 301.472656 26.628906 L 29.851563 285.667969 L 375.578125 428.015625 L 352.445313 43.59375 L 22.910156 230.71875 L 330.027344 458.144531 L 398.652344 73.210938 L 29.191406 174.789063 L 277.929688 476.328125 L 437.121094 114.082031 L 48.734375 121.253906 L 222.246094 481.089844 L 465.28125 164.074219 L 80.773438 73.433594 L 166.242188 471.71875 L 481.089844 220.441406 L 123.746094 34.417969 "/>
</g>
</svg>
