<?xml version="1.0" encoding="UTF-8"?>
<svg xmlns="http://www.w3.org/2000/svg" xmlns:xlink="http://www.w3.org/1999/xlink" width="504pt" height="504pt" viewBox="0 0 504 504" version="1.1">
<g id="surface101">
<rect x="0" y="0" width="504" height="504" style="fill:rgb(100%,100%,100%);fill-opacity:1;stroke:none;"/>
<path style="fill:none;stroke-width:0.426791;stroke-linecap:butt;stroke-linejoin:round;stroke:rgb(0%,0%,0%);stroke-opacity:1;stroke-miterlimit:10;" d="M 252.730469 248.425781 L 253.023438 248.792969 L 251.8125 248.226563 L 253.992188 247.796875 L 251.945313 250.128906 L 252.15625 246.152344 L 254.984375 250.121094 L 249.4375 248.527344 L 255.585938 245.980469 L 251.957031 252.578125 L 250.5 244.296875 L 257.496094 250.429688 L 247.304688 249.972656 L 256.257813 243.445313 L 253.144531 254.980469 L 247.96875 243.234375 L 260.167969 249.566406 L 245.8125 252.425781 L 255.773438 240.546875 L 255.457031 256.914063 L 244.878906 243.261719 L 262.5625 247.496094 L 245.316406 255.628906 L 254.035156 237.714844 L 258.699219 257.984375 L 241.628906 244.558594 L 264.253906 244.339844 L 246.074219 259.214844 L 251.074219 235.394531 L 262.550781 257.867188 L 238.675781 247.171875 L 264.859375 240.355469 L 248.214844 262.746094 L 247.074219 234.011719 L 266.609375 256.351563 L 236.472656 251.003906 L 264.089844 235.902344 L 251.726563 265.753906 L 242.34375 233.917969 L 270.394531 253.359375 L 235.433594 255.8125 L 261.78125 231.441406 L 256.445313 267.777344 L 237.3125 235.371094 L 273.417969 248.964844 L 235.898438 261.226563 L 257.90625 227.472656 L 262.070313 268.410156 L 232.46875 238.492188 L 275.21875 243.390625 L 238.082031 266.777344 L 252.601563 224.5 L 268.167969 267.347656 L 228.347656 243.242188 L 275.402344 237.003906 L 242.054688 271.925781 L 246.15625 222.988281 L 274.222656 264.410156 L 225.46875 249.429688 L 273.691406 230.289063 L 247.71875 276.125 L 238.992188 223.304688 L 279.660156 259.585938 L 224.28125 256.703125 L 269.957031 223.804688 L 254.820313 278.847656 L 231.65625 225.691406 L 283.90625 253.027344 L 225.144531 264.574219 L 264.234375 218.160156 L 262.945313 279.644531 L 224.753906 230.238281 L 286.429688 245.054688 L 228.265625 272.453125 L 256.738281 213.941406 L 271.539063 278.191406 L 218.917969 236.847656 L 286.792969 236.144531 L 233.671875 279.691406 L 247.855469 211.6875 L 279.964844 274.320313 L 214.765625 245.242188 L 284.695313 226.902344 L 241.222656 285.632813 L 238.132813 211.808594 L 287.535156 268.050781 L 212.816406 254.976563 L 280.019531 218.015625 L 250.566406 289.648438 L 228.222656 214.578125 L 293.554688 259.59375 L 213.472656 265.441406 L 272.832031 210.207031 L 261.191406 291.230469 L 218.871094 220.070313 L 297.40625 249.351563 L 216.972656 275.925781 L 263.40625 204.1875 L 272.429688 289.988281 L 210.832031 228.160156 L 298.570313 237.90625 L 223.34375 285.652344 L 252.214844 200.578125 L 283.511719 285.738281 L 204.832031 238.511719 L 296.695313 225.984375 L 232.398438 293.828125 L 239.902344 199.890625 L 293.617188 278.496094 L 201.503906 250.589844 L 291.628906 214.398438 L 243.738281 299.71875 L 227.261719 202.433594 L 301.921875 268.503906 L 201.335938 263.679688 L 283.445313 204.019531 L 256.753906 302.695313 L 215.15625 208.324219 L 307.679688 256.234375 L 204.609375 276.941406 L 272.453125 195.679688 L 270.675781 302.292969 L 204.488281 217.429688 L 310.265625 242.355469 L 211.390625 289.460938 L 259.183594 190.140625 L 284.597656 298.261719 L 196.128906 229.378906 L 309.238281 227.707031 L 221.492188 300.304688 L 244.382813 188.011719 L 297.554688 290.589844 L 190.832031 243.570313 L 304.390625 213.238281 L 234.472656 308.589844 L 228.949219 189.707031 L 308.582031 279.527344 L 189.203125 259.203125 L 295.757813 199.953125 L 249.664063 313.558594 L 213.890625 195.390625 L 316.785156 265.578125 L 191.617188 275.308594 L 283.652344 188.855469 L 266.1875 314.628906 L 200.261719 204.964844 L 321.398438 249.480469 L 198.203125 290.832031 L 268.652344 180.839844 L 283.019531 311.457031 L 189.082031 218.0625 L 321.859375 232.171875 L 208.808594 304.6875 L 251.566406 176.664063 L 299.054688 303.964844 L 181.265625 234.035156 L 317.867188 214.730469 L 222.980469 315.835938 L 233.402344 176.859375 L 313.160156 292.371094 L 177.554688 252.003906 L 309.394531 198.320313 L 240.011719 323.355469 L 215.300781 181.691406 L 324.28125 277.183594 L 178.460938 270.902344 L 296.71875 184.089844 L 258.949219 326.519531 L 198.464844 191.136719 L 331.488281 259.1875 L 184.207031 289.53125 L 280.425781 173.113281 L 278.652344 324.859375 L 184.085938 204.839844 L 334.074219 239.402344 L 194.703125 306.652344 L 261.375 166.316406 L 297.875 318.191406 L 173.253906 222.160156 L 331.597656 219.027344 L 209.535156 321.046875 L 240.65625 164.375 L 315.324219 306.671875 L 166.882813 242.15625 L 323.933594 199.359375 L 227.972656 331.625 L 219.53125 167.699219 L 329.757813 290.777344 L 165.632813 263.679688 L 311.300781 181.726563 L 249.019531 337.476563 L 199.355469 176.355469 L 340.078125 271.3125 L 169.867188 285.40625 L 294.246094 167.382813 L 271.4375 337.976563 L 181.492188 190.0625 L 345.390625 249.351563 L 179.597656 305.9375 L 273.648438 157.433594 L 293.84375 332.8125 L 167.222656 208.199219 L 345.089844 226.183594 L 194.476563 323.878906 L 250.664063 152.75 L 314.792969 322.023438 L 157.648438 229.808594 L 338.921875 203.253906 L 213.800781 337.941406 L 226.652344 153.894531 L 332.855469 306.035156 L 153.621094 253.675781 L 326.988281 182.046875 L 236.539063 347.03125 L 203.117188 161.078125 L 346.730469 285.621094 L 155.667969 278.371094 L 309.78125 164.015625 L 261.394531 350.324219 L 181.589844 174.125 L 355.328125 261.882813 L 163.941406 302.34375 L 288.160156 150.460938 L 286.871094 347.339844 L 163.546875 192.472656 L 357.851563 236.195313 L 178.199219 324.023438 L 263.308594 142.464844 L 311.367188 337.980469 L 150.300781 215.183594 L 353.863281 210.105469 L 197.800781 341.921875 L 236.671875 140.777344 L 333.265625 322.5625 L 142.914063 241 L 343.332031 185.273438 L 221.722656 354.726563 L 209.871094 145.792969 L 351.054688 301.800781 L 142.113281 268.414063 L 326.644531 163.328125 L 248.632813 361.40625 L 184.609375 157.472656 L 363.433594 276.796875 L 148.222656 295.742188 L 304.605469 145.796875 L 276.9375 361.269531 L 162.558594 175.359375 L 369.382813 248.964844 L 161.152344 321.242188 L 278.394531 133.976563 L 304.898438 354.050781 L 145.253906 198.566406 L 368.257813 219.949219 L 180.351563 343.222656 L 249.5 128.847656 L 330.730469 339.917969 L 133.984375 225.839844 L 359.851563 191.546875 L 204.855469 360.148438 L 219.65625 131.003906 L 352.703125 319.488281 L 129.703125 255.605469 L 344.402344 165.585938 L 233.324219 370.746094 L 190.710938 140.59375 L 369.277344 293.816406 L 132.953125 286.082031 L 322.625 143.800781 L 264.101563 374.105469 L 164.53125 157.292969 L 379.199219 264.324219 L 143.8125 315.371094 L 295.648438 127.726563 L 295.335938 369.734375 L 142.875 180.320313 L 381.59375 232.730469 L 161.882813 341.570313 L 264.984375 118.589844 L 325.070313 357.625 L 127.273438 208.453125 L 376.035156 200.949219 L 186.289063 362.921875 L 232.433594 117.222656 L 351.378906 338.257813 L 118.933594 240.101563 L 362.578125 170.976563 L 215.722656 377.898438 L 199.976563 123.988281 L 372.472656 312.597656 L 118.640625 273.398438 L 341.792969 144.765625 L 248.503906 385.339844 L 169.660156 138.75 L 386.851563 282.035156 L 126.691406 306.308594 L 314.734375 124.101563 L 282.691406 384.507813 L 143.46875 160.859375 L 393.371094 248.320313 L 142.871094 336.75 L 282.882813 110.464844 L 316.1875 375.175781 L 123.183594 189.171875 L 391.359375 213.464844 L 166.433594 362.722656 L 248.082031 104.957031 L 346.859375 357.640625 L 110.277344 222.121094 L 380.65625 179.617188 L 196.152344 382.453125 L 212.410156 108.183594 L 372.691406 332.734375 L 105.804688 257.792969 L 361.644531 148.9375 L 230.363281 394.5 L 178.082031 120.238281 L 391.914063 301.773438 L 110.316406 294.042969 L 335.253906 123.445313 L 267.066406 397.855469 L 147.285156 140.644531 L 403.101563 266.507813 L 123.820313 328.617188 L 302.890625 104.90625 L 304.042969 392.039063 L 122.066406 168.390625 L 405.304688 229.007813 L 145.753906 359.296875 L 266.402344 94.695313 L 338.992188 377.125 L 104.167969 201.96875 L 398.109375 191.550781 L 175.003906 384.046875 L 227.941406 93.707031 L 369.664063 353.765625 L 94.941406 239.457031 L 381.671875 156.472656 L 209.96875 401.140625 L 189.84375 102.289063 L 394.011719 323.164063 L 95.21875 278.636719 L 356.746094 126.039063 L 248.632813 409.277344 L 154.507813 120.1875 L 410.328125 287.019531 L 105.269531 317.109375 L 324.628906 102.292969 L 288.699219 407.683594 L 124.214844 146.558594 L 417.359375 247.417969 L 124.753906 352.453125 L 287.121094 86.902344 L 327.699219 396.179688 L 101.007813 180.011719 L 414.394531 206.730469 L 152.726563 382.375 L 246.402344 81.074219 L 363.179688 375.191406 L 86.527344 218.65625 L 401.335938 167.460938 L 187.6875 404.855469 L 204.917969 85.441406 L 392.828125 345.761719 L 81.925781 260.238281 L 378.710938 132.097656 L 227.65625 418.285156 L 165.230469 100.019531 L 414.636719 309.488281 L 87.765625 302.246094 L 347.660156 102.953125 L 270.285156 421.582031 L 129.863281 124.179688 L 427.027344 268.4375 L 103.96875 342.078125 L 309.890625 82.003906 L 312.992188 414.253906 L 101.125 156.683594 L 428.976563 225.035156 L 129.8125 377.199219 L 267.5625 70.78125 L 353.125 396.476563 L 80.992188 195.730469 L 420.082031 181.914063 L 163.945313 405.296875 L 223.191406 70.238281 L 388.117188 369.078125 L 70.9375 239.070313 L 400.609375 141.761719 L 204.464844 424.445313 L 179.476563 80.695313 L 415.664063 333.503906 L 71.851563 284.125 L 371.492188 107.148438 L 249.023438 433.214844 L 139.152344 101.78125 L 433.859375 291.75 L 83.960938 328.140625 L 334.292969 80.375 L 294.953125 430.800781 L 104.808594 132.46875 L 441.335938 246.257813 L 106.804688 368.351563 L 291.105469 63.292969 L 339.445313 417.0625 L 78.726563 171.085938 L 437.359375 199.746094 L 139.226563 402.175781 L 244.46875 57.210938 L 379.695313 392.570313 L 62.734375 215.445313 L 421.886719 155.082031 L 179.464844 427.351563 L 197.179688 62.777344 L 413.109375 358.578125 L 58.070313 262.9375 L 395.59375 115.074219 L 225.207031 442.105469 L 152.160156 79.933594 L 437.449219 316.960938 L 65.296875 310.691406 L 359.851563 82.324219 L 273.761719 445.273438 L 112.257813 107.898438 L 450.980469 270.109375 L 84.261719 355.753906 L 316.640625 59.027344 L 322.179688 436.375 L 80.058594 145.195313 L 452.609375 220.804688 L 114.0625 395.273438 L 268.464844 46.851563 L 367.464844 415.683594 L 57.746094 189.742188 L 441.957031 172.039063 L 153.113281 426.667969 L 218.191406 46.820313 L 406.742188 384.191406 L 46.925781 238.945313 L 419.394531 126.84375 L 199.214844 447.8125 L 168.875 59.207031 L 437.433594 343.609375 L 48.539063 289.867188 L 386.042969 88.097656 L 249.667969 457.152344 L 123.597656 83.539063 L 457.449219 296.234375 L 62.769531 339.398438 L 343.71875 58.347656 L 301.460938 453.851563 L 85.246094 118.578125 L 465.308594 244.839844 L 89.023438 384.449219 L 294.835938 39.632813 L 351.414063 437.824219 L 56.347656 162.402344 L 460.25 192.515625 L 125.941406 422.125 L 242.273438 33.359375 L 396.402344 409.777344 L 38.902344 212.492188 L 442.304688 142.480469 L 171.480469 449.9375 L 189.195313 40.1875 L 433.53125 371.179688 L 34.238281 265.894531 L 412.296875 97.867188 L 223.015625 465.957031 L 138.871094 59.984375 L 460.34375 324.191406 L 42.917969 319.378906 L 371.820313 61.558594 L 277.492188 468.933594 L 94.472656 91.800781 L 474.953125 271.527344 L 64.695313 369.644531 L 323.148438 35.96875 L 331.609375 458.40625 L 58.863281 133.933594 L 476.203125 216.320313 L 98.507813 413.519531 L 269.113281 22.910156 L 382.019531 434.734375 L 34.425781 184 L 463.730469 161.925781 L 142.511719 448.160156 L 212.933594 23.445313 L 425.53125 399.113281 L 22.910156 239.074219 L 438.023438 111.722656 L 194.210938 471.238281 L 158.039063 37.832031 L 459.316406 353.484375 L 25.285156 295.859375 L 400.386719 68.886719 L 250.574219 481.089844 L 107.839844 65.460938 L 481.089844 300.460938 L 41.695313 350.890625 L 352.910156 36.214844 "/>
</g>
</svg>
