<?xml version="1.0" encoding="UTF-8"?>
<svg xmlns="http://www.w3.org/2000/svg" xmlns:xlink="http://www.w3.org/1999/xlink" width="504pt" height="504pt" viewBox="0 0 504 504" version="1.1">
<g id="surface26">
<rect x="0" y="0" width="504" height="504" style="fill:rgb(100%,100%,100%);fill-opacity:1;stroke:none;"/>
<path style="fill:none;stroke-width:0.426791;stroke-linecap:butt;stroke-linejoin:round;stroke:rgb(0%,0%,0%);stroke-opacity:1;stroke-miterlimit:10;" d="M 245.472656 251.351563 L 245.675781 251.90625 L 244.699219 250.464844 L 247.023438 252.199219 L 243.136719 251.023438 L 248.347656 250.722656 L 242.5 253.269531 L 247.933594 248.046875 L 244.160156 255.875 L 245.070313 246.070313 L 247.941406 256.695313 L 240.867188 246.796875 L 251.917969 254.253906 L 237.828125 250.851563 L 253.371094 248.984375 L 238.429688 256.691406 L 250.515625 243.394531 L 243.414063 261.144531 L 243.878906 240.878906 L 250.917969 261.125 L 236.496094 243.71875 L 257.105469 255.566406 L 232.507813 251.476563 L 258.121094 246.496094 L 234.878906 260.714844 L 252.390625 238.363281 L 243.460938 266.523438 L 241.910156 235.863281 L 254.558594 265.109375 L 231.664063 241.292969 L 262.496094 256.109375 L 227.269531 252.898438 L 262.515625 243.292969 L 231.917969 265.28125 L 253.527344 233.027344 L 244.308594 271.921875 L 239.179688 231.113281 L 258.8125 268.578125 L 226.4375 239.570313 L 268.007813 255.855469 L 222.199219 255.105469 L 266.46875 239.414063 L 229.601563 270.328125 L 253.886719 227.476563 L 245.960938 277.25 L 235.726563 226.71875 L 263.625 271.460938 L 220.898438 238.585938 L 273.546875 254.796875 L 217.390625 258.074219 L 269.910156 234.914063 L 227.992188 275.773438 L 253.445313 221.796875 L 248.40625 282.414063 L 231.582031 222.753906 L 268.925781 273.699219 L 215.132813 238.382813 L 279.023438 252.925781 L 212.925781 261.785156 L 272.769531 229.84375 L 227.128906 281.546875 L 252.1875 216.078125 L 251.632813 287.324219 L 226.804688 219.296875 L 274.640625 275.230469 L 209.222656 238.988281 L 284.347656 250.25 L 208.890625 266.191406 L 274.976563 224.269531 L 227.050781 287.5625 L 250.113281 210.410156 L 255.605469 291.902344 L 221.4375 216.425781 L 280.699219 276.011719 L 203.261719 240.414063 L 289.429688 246.785156 L 205.359375 271.253906 L 276.476563 218.261719 L 227.789063 293.734375 L 247.214844 204.882813 L 260.300781 296.054688 L 215.554688 214.199219 L 287.015625 276.003906 L 197.335938 242.675781 L 294.183594 242.554688 L 202.414063 276.917969 L 277.222656 211.898438 L 229.359375 299.972656 L 243.511719 199.589844 L 265.664063 299.703125 L 209.214844 212.6875 L 293.503906 275.167969 L 191.542969 245.769531 L 298.515625 237.589844 L 200.117188 283.121094 L 277.164063 205.257813 L 231.785156 306.183594 L 239.023438 194.621094 L 271.652344 302.773438 L 202.5 211.933594 L 300.078125 273.484375 L 185.976563 249.6875 L 302.347656 231.929688 L 198.535156 289.796875 L 276.269531 198.425781 L 235.058594 312.277344 L 233.777344 190.058594 L 278.199219 305.1875 L 195.492188 211.992188 L 306.640625 270.9375 L 180.71875 254.410156 L 305.601563 225.628906 L 197.726563 296.871094 L 274.511719 191.496094 L 239.175781 318.164063 L 227.8125 185.996094 L 285.246094 306.886719 L 188.269531 212.902344 L 313.097656 267.519531 L 175.871094 259.914063 L 308.199219 218.738281 L 197.738281 304.265625 L 271.871094 184.554688 L 244.125 323.742188 L 221.179688 182.511719 L 292.714844 307.804688 L 180.925781 214.6875 L 319.359375 263.238281 L 171.511719 266.15625 L 310.070313 211.328125 L 198.613281 311.890625 L 268.339844 177.703125 L 249.878906 328.929688 L 213.933594 179.683594 L 300.53125 307.894531 L 173.554688 217.375 L 325.332031 258.101563 L 167.726563 273.097656 L 311.160156 203.464844 L 200.382813 319.664063 L 263.914063 171.03125 L 256.402344 333.628906 L 206.132813 177.578125 L 308.605469 307.109375 L 166.25 220.972656 L 330.914063 252.132813 L 164.601563 280.683594 L 311.40625 195.230469 L 203.074219 327.484375 L 258.609375 164.632813 L 263.65625 337.761719 L 197.855469 176.265625 L 316.847656 305.410156 L 159.105469 225.488281 L 336.023438 245.363281 L 162.203125 288.855469 L 310.761719 186.707031 L 206.703125 335.265625 L 252.441406 158.609375 L 271.589844 341.238281 L 189.167969 175.804688 L 325.171875 302.769531 L 152.222656 230.914063 L 340.566406 237.832031 L 160.601563 297.535156 L 309.183594 177.984375 L 211.277344 342.902344 L 245.4375 153.050781 L 280.136719 343.984375 L 180.164063 176.25 L 333.476563 299.167969 L 145.699219 237.230469 L 344.460938 229.585938 L 159.867188 306.65625 L 306.644531 169.15625 L 216.789063 350.300781 L 237.636719 148.046875 L 289.238281 345.925781 L 170.925781 177.640625 L 341.660156 294.597656 L 139.625 244.417969 L 347.621094 220.6875 L 160.046875 316.132813 L 303.121094 160.316406 L 223.230469 357.359375 L 229.085938 143.691406 L 298.816406 347 L 161.546875 180.011719 L 349.632813 289.054688 L 134.097656 252.441406 L 349.972656 211.203125 L 161.195313 325.878906 L 298.59375 151.566406 L 230.578125 363.980469 L 219.839844 140.0625 L 308.785156 347.140625 L 152.128906 183.398438 L 357.28125 282.550781 L 129.210938 261.253906 L 351.449219 201.199219 L 163.347656 335.796875 L 293.0625 143.007813 L 238.804688 370.070313 L 209.960938 137.246094 L 319.066406 346.304688 L 142.769531 187.8125 L 364.515625 275.101563 L 125.050781 270.800781 L 351.980469 190.757813 L 166.539063 345.792969 L 286.53125 134.742188 L 247.859375 375.53125 L 199.519531 135.308594 L 329.558594 344.441406 L 133.570313 193.261719 L 371.230469 266.738281 L 121.699219 281.027344 L 351.515625 179.96875 L 170.789063 355.765625 L 279.015625 126.871094 L 257.703125 380.277344 L 188.597656 134.324219 L 340.167969 341.515625 L 124.636719 199.75 L 377.332031 257.496094 L 119.234375 291.863281 L 350.003906 168.921875 L 176.109375 365.609375 L 270.539063 119.5 L 268.269531 384.214844 L 177.28125 134.347656 L 350.789063 337.507813 L 116.074219 207.261719 L 382.722656 247.421875 L 117.726563 303.222656 L 347.40625 157.71875 L 182.507813 375.21875 L 261.136719 112.726563 L 279.492188 387.265625 L 165.660156 135.433594 L 361.320313 332.390625 L 107.988281 215.777344 L 387.3125 236.574219 L 117.242188 315.03125 L 343.691406 146.457031 L 189.96875 384.488281 L 250.855469 106.648438 L 291.296875 389.351563 L 153.835938 137.632813 L 371.652344 326.164063 L 100.480469 225.265625 L 391.015625 225.019531 L 117.84375 327.1875 L 338.839844 135.246094 L 198.484375 393.308594 L 239.742188 101.359375 L 303.597656 390.410156 L 141.90625 140.96875 L 381.679688 318.828125 L 93.652344 235.683594 L 393.753906 212.828125 L 119.570313 339.605469 L 332.835938 124.195313 L 208.023438 401.578125 L 227.867188 96.949219 L 316.308594 390.371094 L 129.984375 145.480469 L 391.289063 310.398438 L 87.601563 246.984375 L 395.453125 200.082031 L 122.46875 352.171875 L 325.679688 113.410156 L 218.546875 409.1875 L 215.300781 93.503906 L 329.328125 389.183594 L 118.175781 151.175781 L 400.371094 300.890625 L 82.421875 259.105469 L 396.042969 186.875 L 126.574219 364.785156 L 317.382813 103.007813 L 230.007813 416.039063 L 202.121094 91.105469 L 342.554688 386.800781 L 106.59375 158.0625 L 408.820313 290.347656 L 78.203125 271.980469 L 395.464844 173.300781 L 131.898438 377.328125 L 307.957031 93.101563 L 242.351563 422.03125 L 188.414063 89.816406 L 355.878906 383.191406 L 95.351563 166.140625 L 416.53125 278.808594 L 75.027344 285.527344 L 393.671875 159.460938 L 138.460938 389.695313 L 297.4375 83.792969 L 255.511719 427.070313 L 174.28125 89.710938 L 369.1875 378.320313 L 84.566406 175.394531 L 423.398438 266.328125 L 72.976563 299.664063 L 390.617188 145.464844 L 146.261719 401.765625 L 285.859375 75.203125 L 269.410156 431.070313 L 159.820313 90.839844 L 382.371094 372.175781 L 74.351563 185.796875 L 429.324219 252.96875 L 72.117188 314.292969 L 386.273438 131.425781 L 155.289063 413.421875 L 273.277344 67.429688 L 283.964844 433.945313 L 145.140625 93.253906 L 395.304688 364.75 L 64.820313 197.316406 L 434.21875 238.804688 L 72.511719 329.3125 L 380.609375 117.460938 L 165.523438 424.546875 L 259.75 60.578125 L 299.082031 435.625 L 130.355469 96.988281 L 407.875 356.050781 L 56.085938 209.902344 L 437.988281 223.914063 L 74.214844 344.621094 L 373.625 103.683594 L 176.933594 435.027344 L 245.34375 54.746094 L 314.660156 436.039063 L 115.582031 102.074219 L 419.957031 346.085938 L 48.25 223.503906 L 440.558594 208.390625 L 77.265625 360.097656 L 365.308594 90.226563 L 189.480469 444.742188 L 230.140625 50.03125 L 330.59375 435.128906 L 100.941406 108.527344 L 431.429688 334.882813 L 41.417969 238.050781 L 441.851563 192.332031 L 81.707031 375.628906 L 355.671875 77.203125 L 203.113281 453.585938 L 214.230469 46.515625 L 346.769531 432.839844 L 86.558594 116.355469 L 442.179688 322.484375 L 35.691406 253.46875 L 441.800781 175.847656 L 87.554688 391.089844 L 344.738281 64.738281 L 217.761719 461.449219 L 197.707031 44.277344 L 363.070313 429.140625 L 72.558594 125.554688 L 452.085938 308.929688 L 31.160156 269.671875 L 440.351563 159.042969 L 94.828125 406.355469 L 332.539063 52.960938 L 233.363281 468.222656 L 180.679688 43.394531 L 379.367188 423.992188 L 59.066406 136.109375 L 461.035156 294.285156 L 27.910156 286.5625 L 437.460938 142.042969 L 103.523438 421.300781 L 319.117188 41.984375 L 249.824219 473.816406 L 163.253906 43.925781 L 395.539063 417.378906 L 46.214844 147.996094 L 468.921875 278.613281 L 26.019531 304.042969 L 433.085938 124.972656 L 113.636719 435.792969 L 304.523438 31.929688 L 267.0625 478.132813 L 145.554688 45.921875 L 411.453125 409.289063 L 34.121094 161.171875 L 475.640625 262 L 25.558594 322 L 427.203125 107.953125 L 125.148438 449.703125 L 288.828125 22.910156 L 284.96875 481.089844 L 127.703125 49.429688 L 426.976563 399.730469 L 22.910156 175.59375 L 481.089844 244.527344 "/>
</g>
</svg>
