<?xml version="1.0" encoding="UTF-8"?>
<svg xmlns="http://www.w3.org/2000/svg" xmlns:xlink="http://www.w3.org/1999/xlink" width="504pt" height="504pt" viewBox="0 0 504 504" version="1.1">
<g id="surface6">
<rect x="0" y="0" width="504" height="504" style="fill:rgb(100%,100%,100%);fill-opacity:1;stroke:none;"/>
<path style="fill:none;stroke-width:0.853583;stroke-linecap:butt;stroke-linejoin:round;stroke:rgb(0%,0%,0%);stroke-opacity:1;stroke-miterlimit:10;" d="M 253.003906 257.964844 L 253.949219 258.683594 L 250.71875 258.597656 L 254.328125 254.660156 L 255.441406 262.042969 L 247.109375 257.304688 L 257.921875 252.8125 L 254.3125 266.171875 L 244.640625 253.472656 L 262.722656 253.535156 L 250.378906 269.542969 L 244.628906 247.949219 L 267.226563 257.304688 L 244.238281 270.667969 L 247.847656 242.164063 L 269.8125 263.820313 L 237.179688 268.460938 L 254.324219 237.820313 L 269.117188 271.996094 L 230.929688 262.539063 L 263.253906 236.542969 L 264.371094 280.15625 L 227.308594 253.363281 L 273.101563 239.484375 L 255.632813 286.34375 L 227.84375 242.242188 L 281.855469 247.03125 L 243.886719 288.699219 L 233.390625 231.128906 L 287.40625 258.625 L 230.90625 285.890625 L 243.890625 222.300781 L 287.972656 272.773438 L 219.023438 277.429688 L 258.265625 217.9375 L 282.484375 287.234375 L 210.699219 263.875 L 274.511719 219.660156 L 270.902344 299.378906 L 208.085938 246.847656 L 289.976563 228.183594 L 254.324219 306.632813 L 212.550781 228.84375 L 301.796875 243.042969 L 234.90625 306.972656 L 224.367188 212.867188 L 307.390625 262.578125 L 215.601563 299.359375 L 242.53125 201.941406 L 304.953125 284.09375 L 199.703125 284.027344 L 264.800781 198.566406 L 293.871094 304.226563 L 190.289063 262.574219 L 287.972656 204.234375 L 274.941406 319.472656 L 189.683594 237.816406 L 308.347656 219.0625 L 250.371094 326.785156 L 198.96875 213.425781 L 322.300781 241.640625 L 223.527344 324.121094 L 217.691406 193.378906 L 326.917969 269.140625 L 198.5 310.878906 L 243.804688 181.332031 L 320.527344 297.65625 L 179.449219 288.144531 L 273.871094 179.964844 L 303.109375 322.761719 L 169.953125 258.625 L 303.496094 190.476563 L 276.402344 340.191406 L 172.351563 226.359375 L 327.996094 212.265625 L 243.792969 346.546875 L 187.292969 196.164063 L 343.113281 242.875 L 209.871094 339.910156 L 213.476563 172.90625 L 345.734375 278.261719 L 179.796875 320.28125 L 247.738281 160.738281 L 334.480469 313.328125 L 158.515625 289.691406 L 285.394531 162.378906 L 310.046875 342.640625 L 149.949219 252.03125 L 320.914063 178.589844 L 275.230469 361.28125 L 156.328125 212.582031 L 348.699219 207.917969 L 234.636719 365.652344 L 177.703125 177.242188 L 363.976563 246.777344 L 194.066406 354.121094 L 211.824219 151.679688 L 363.589844 289.875 L 159.699219 327.40625 L 254.324219 140.414063 L 346.601563 330.945313 L 137.144531 288.597656 L 299.28125 146.050781 L 314.554688 363.628906 L 130.539063 242.832031 L 340.042969 168.757813 L 271.382813 382.484375 L 141.835938 196.605469 L 370.210938 206.121094 L 222.957031 383.855469 L 170.363281 156.867188 L 384.625 253.351563 L 176.265625 366.542969 L 212.804688 129.957031 L 380.246094 303.890625 L 138.425781 332.117188 L 263.539063 120.625 L 356.703125 350.328125 L 115.59375 284.824219 L 315.402344 131.207031 L 316.519531 385.496094 L 111.972656 231.078125 L 360.6875 161.152344 L 264.851563 403.539063 L 129.089844 178.582031 L 392.289063 206.960938 L 208.84375 400.90625 L 165.417969 135.25 L 404.808594 262.582031 L 156.640625 376.976563 L 216.46875 107.988281 L 395.460938 320.1875 L 116.210938 334.296875 L 275.339844 101.625 L 364.609375 371.292969 L 94.125 278.347656 L 333.625 118.070313 L 315.855469 407.992188 L 94.503906 216.847656 L 382.632813 155.917969 L 255.640625 424.1875 L 118.296875 158.679688 L 414.675781 210.496094 L 192.398438 416.566406 L 162.992188 112.628906 L 424.261719 274.429688 L 135.378906 385.238281 L 222.855469 86.039063 L 409.015625 338.636719 L 93.300781 333.84375 L 289.652344 83.664063 L 370.164063 393.621094 L 73.003906 269.167969 L 353.785156 106.851563 L 312.492188 430.871094 L 78.375 200.238281 L 405.652344 153.199219 L 243.78125 444.164063 L 109.640625 137.074219 L 437.113281 216.765625 L 173.75 430.609375 L 163.1875 89.234375 L 442.730469 288.832031 L 112.6875 391.167969 L 231.964844 64.363281 L 420.691406 359.085938 L 69.9375 330.6875 L 306.390625 66.992188 L 373.21875 417.09375 L 52.484375 257.304688 L 375.707031 97.742188 L 306.382813 453.867188 L 63.820313 181.367188 L 429.511719 153.101563 L 229.332031 463.21875 L 103.300781 113.96875 L 459.339844 225.785156 L 153.046875 442.808594 L 166.097656 65.324219 L 459.964844 305.707031 L 88.777344 394.613281 L 243.78125 43.234375 L 430.289063 381.363281 L 46.386719 324.765625 L 325.4375 51.851563 L 373.660156 441.480469 L 32.835938 242.808594 L 399.195313 90.925781 L 297.5 476.71875 L 51.0625 160.382813 L 453.964844 155.71875 L 212.363281 481.089844 L 99.421875 89.578125 L 481.089844 237.550781 L 130.453125 452.964844 L 171.78125 41.148438 L 475.71875 324.953125 L 63.886719 395.441406 L 258.277344 22.910156 L 437.625 405.277344 L 22.910156 316.046875 "/>
</g>
</svg>
